<?xml version="1.0" encoding="UTF-8"?>
<svg id="_Слой_2" data-name="Слой 2" xmlns="http://www.w3.org/2000/svg" width="412.56mm" height="55.35mm" viewBox="0 0 1169.46 156.89">
  <defs>
    <style>
      .cls-1 {
        fill: #fff;
      }
    </style>
  </defs>
  <g id="Layer_1" data-name="Layer 1">
    <g>
      <path class="cls-1" d="m21.08,54.69v-23.89h51.89V9.73H0v141.6h96.06l.36-10.18c.9-25.96-8.16-50.02-24.86-66.03-13.3-12.74-30.59-19.71-50.48-20.43Zm0,75.56v-54.45c14.33.7,26.61,5.65,35.9,14.55,10.23,9.81,16.58,23.99,18.08,39.9H21.08Z"/>
      <path class="cls-1" d="m181.83,4.16c-42.11,0-76.37,34.26-76.37,76.37s34.26,76.36,76.37,76.36,76.37-34.26,76.37-76.36S223.94,4.16,181.83,4.16Zm-10.54,130.64c-25.46-4.94-44.75-27.39-44.75-54.26s19.29-49.34,44.75-54.27v108.53Zm21.08,0V26.26c25.46,4.93,44.75,27.38,44.75,54.27s-19.29,49.33-44.75,54.26Z"/>
      <path class="cls-1" d="m370.86,9.73h-21.08c0,23.09-8.53,50.27-47.35,54.42-.6-13.39-4.24-35.77-18.42-54.42h-27.69l6.33,6.63c21.81,21.81,18.65,57.48,18.63,57.8l-1.19,11.61h11.68c27.07,0,47.72-7.95,61.47-23.58,7.6,27.09-1.52,49.17-16.12,60.45-17.73,13.69-41.28,11.62-60-5.28l-11.99,17.51c12.95,10.97,27.77,17.11,43.02,17.8.94.04,1.88.06,2.82.06,14,0,27.76-4.71,39.03-13.41,23.97-18.52,38.02-56.69,16.6-100.99,2.81-8.66,4.26-18.27,4.26-28.6Z"/>
      <path class="cls-1" d="m469.95,38.01c2.46,0,4.45-.36,5.96-1.09,1.51-.73,2.6-1.75,3.29-3.07.69-1.32,1.03-2.85,1.03-4.59,0-2.22-.41-3.96-1.24-5.21-.82-1.25-2.04-2.13-3.65-2.63-1.61-.5-3.6-.76-5.98-.76h-4.03v-4.25h13.04v-6.71h-21.1v28.3h12.68Zm-1.15-11.99c.38,0,.76.05,1.13.15.37.1.71.26,1.01.49.3.22.54.52.72.89.17.37.26.83.26,1.37,0,.78-.14,1.41-.42,1.88-.29.47-.69.8-1.23,1-.53.2-1.18.3-1.93.3h-3v-6.07h3.48Z"/>
      <path class="cls-1" d="m494.86,33.63c.07-.3.14-.56.21-.85h8.67c.07.3.14.56.22.87.36,1.5.72,2.95,1.06,4.37h8.46c-.46-1.51-.95-3.09-1.46-4.74-.51-1.65-1.01-3.26-1.5-4.82l-2.98-9.73c-.53-1.71-1.01-3.26-1.44-4.67-.43-1.4-.88-2.85-1.34-4.35h-10.46c-.44,1.43-.88,2.84-1.31,4.25-.44,1.4-.92,2.99-1.47,4.77l-3,9.73c-.48,1.5-.98,3.09-1.49,4.77-.52,1.69-1.01,3.29-1.47,4.79h8.18c.36-1.4.73-2.87,1.12-4.39Zm4.88-17.09l2.49,10.18h-5.64l2.57-10.18h.58Z"/>
      <path class="cls-1" d="m520.85,38.45c.46.04.96.06,1.49.06,1.92,0,3.44-.32,4.55-.95,1.12-.64,1.96-1.59,2.53-2.86.57-1.27.98-2.84,1.22-4.72.25-1.88.46-4.05.63-6.51.14-2.14.29-4.2.45-6.16.02-.27.04-.55.06-.82h5.98v21.54h8.22V9.71h-21.48c-.08,1.73-.16,3.51-.26,5.32-.09,1.81-.18,3.57-.26,5.26-.13,2.53-.34,4.62-.62,6.26-.29,1.65-.69,2.88-1.23,3.68-.53.81-1.24,1.21-2.11,1.21-.15,0-.32,0-.52-.03-.2-.02-.44-.05-.73-.09l-.3,6.73c.33.08.69.16,1.09.23.4.07.83.13,1.29.17Z"/>
      <path class="cls-1" d="m560.98,28.86v9.15h8.16v-21.22h7.88v-7.08h-23.92v7.08h7.88v12.07Z"/>
      <path class="cls-1" d="m593.81,33.7c.97-1.48,2.02-3.08,3.18-4.81l3.77-5.72h.54v14.85h7.96V9.71h-6.89c-1.08,1.68-2.11,3.26-3.08,4.73-.96,1.48-1.92,2.95-2.88,4.42l-3.71,5.68h-.58v-14.82h-7.96v28.3h6.81c.93-1.4,1.87-2.84,2.84-4.32Z"/>
      <path class="cls-1" d="m625.3,7.01c1.31.58,2.97.87,4.97.87s3.7-.29,5.02-.87c1.31-.58,2.3-1.44,2.94-2.58.65-1.14.98-2.54.99-4.21h-5.8c0,.99-.25,1.81-.75,2.45-.5.64-1.3.96-2.4.96s-1.9-.34-2.4-1c-.5-.67-.75-1.54-.75-2.63l-5.79.22c.03,1.67.37,3.07,1.02,4.21.65,1.14,1.64,2,2.96,2.58Z"/>
      <path class="cls-1" d="m627.47,33.7c.97-1.48,2.02-3.08,3.18-4.81l3.77-5.72h.54v14.85h7.96V9.71h-6.89c-1.08,1.68-2.11,3.26-3.08,4.73-.96,1.48-1.92,2.95-2.88,4.42l-3.71,5.68h-.58v-14.82h-7.96v28.3h6.81c.93-1.4,1.87-2.84,2.84-4.32Z"/>
      <path class="cls-1" d="m654.49,34.6c1.32,1.28,2.92,2.27,4.79,2.96s3.97,1.03,6.3,1.03c.82,0,1.64-.03,2.46-.1s1.62-.17,2.39-.31c.77-.14,1.51-.32,2.21-.54.7-.23,1.34-.48,1.91-.77l-.4-7.45c-.65.48-1.29.88-1.91,1.21-.63.33-1.25.59-1.88.77-.62.19-1.24.32-1.85.41-.61.09-1.2.13-1.78.13-1.33,0-2.48-.21-3.45-.65-.98-.43-1.79-1.02-2.43-1.76-.64-.74-1.12-1.6-1.44-2.57-.32-.97-.48-1.99-.48-3.07,0-1.75.31-3.21.93-4.39.62-1.18,1.47-2.06,2.54-2.65,1.07-.59,2.29-.88,3.65-.88.74,0,1.54.1,2.38.28.85.19,1.75.48,2.69.88.94.4,1.94.94,2.97,1.6l.58-7.54c-.57-.3-1.22-.58-1.96-.82-.74-.24-1.52-.46-2.35-.65-.83-.19-1.69-.35-2.59-.46-.89-.11-1.79-.17-2.69-.17-3.15,0-5.81.65-8,1.94-2.18,1.29-3.85,3.06-4.98,5.29-1.14,2.24-1.71,4.77-1.71,7.6,0,2.24.35,4.25,1.05,6.06.7,1.8,1.71,3.34,3.04,4.62Z"/>
      <path class="cls-1" d="m690.67,33.66v-7.22h1.19l2.82,5.06c.56,1.03,1.13,2.08,1.72,3.14.59,1.06,1.21,2.18,1.86,3.37h9.77c-.54-.89-1.19-1.92-1.95-3.12-.75-1.19-1.53-2.42-2.32-3.69-.79-1.27-1.54-2.45-2.24-3.53l-3.21-5.1,2.93-4.07c1.07-1.48,2.13-2.95,3.19-4.4s2.12-2.92,3.21-4.4h-9.29c-.81,1.3-1.52,2.43-2.13,3.39-.61.97-1.23,1.93-1.86,2.9l-2.6,4.09h-1.07v-10.38h-8.16v28.3h8.16v-4.36Z"/>
      <path class="cls-1" d="m724.46,33.7c.97-1.48,2.02-3.08,3.18-4.81l3.77-5.72h.54v14.85h7.96V9.71h-6.89c-1.08,1.68-2.11,3.26-3.08,4.73-.96,1.48-1.92,2.95-2.88,4.42l-3.71,5.68h-.58v-14.82h-7.96v28.3h6.81c.93-1.4,1.87-2.84,2.84-4.32Z"/>
      <path class="cls-1" d="m755.95,7.01c1.31.58,2.97.87,4.97.87s3.7-.29,5.02-.87c1.31-.58,2.3-1.44,2.94-2.58s.98-2.54.99-4.21h-5.8c0,.99-.25,1.81-.75,2.45-.5.64-1.3.96-2.4.96s-1.9-.34-2.4-1c-.5-.67-.75-1.54-.75-2.63l-5.79.22c.03,1.67.37,3.07,1.02,4.21.65,1.14,1.64,2,2.96,2.58Z"/>
      <path class="cls-1" d="m758.12,33.7c.97-1.48,2.02-3.08,3.18-4.81l3.77-5.72h.54v14.85h7.96V9.71h-6.89c-1.08,1.68-2.11,3.26-3.08,4.73-.96,1.48-1.92,2.95-2.88,4.42l-3.71,5.68h-.58v-14.82h-7.96v28.3h6.81c.93-1.4,1.87-2.84,2.84-4.32Z"/>
      <path class="cls-1" d="m488.99,74.4c-.91-1.76-2.36-3.13-4.34-4.11-1.92-.95-4.45-1.42-7.52-1.45v-2.98h-7.92v2.98c-3.06.03-5.57.5-7.49,1.45-1.98.98-3.43,2.35-4.35,4.11-.92,1.76-1.38,3.81-1.38,6.15,0,1.7.25,3.25.75,4.67.5,1.42,1.3,2.65,2.38,3.69s2.5,1.86,4.25,2.43c1.62.53,3.58.79,5.84.83v2.99h7.92v-2.98c3.09-.05,5.6-.53,7.5-1.48,2.01-1,3.47-2.38,4.37-4.14.9-1.76,1.35-3.76,1.35-6.01s-.45-4.39-1.37-6.15Zm-24.33,9.11c-.32-.86-.49-1.85-.49-2.98s.17-2.16.5-3.03c.33-.87.89-1.54,1.68-2.03.77-.47,1.82-.71,3.13-.72v11.5c-1.33-.02-2.39-.25-3.15-.72-.79-.49-1.34-1.17-1.67-2.03Zm17.03,0c-.32.86-.88,1.54-1.67,2.03-.77.47-1.82.71-3.13.72v-11.49c1.31,0,2.36.24,3.12.72.78.48,1.34,1.16,1.67,2.03.33.87.5,1.88.5,3.03s-.16,2.12-.48,2.98Z"/>
      <path class="cls-1" d="m505.6,72.89h11.47v-6.53h-19.49v28.3h19.71v-6.53h-11.69v-4.73h10.93v-5.93h-10.93v-4.59Z"/>
      <path class="cls-1" d="m551.29,84.18v-17.82h-21.5c-.08,1.49-.16,3.06-.26,4.7-.09,1.64-.18,3.32-.28,5.04-.13,2.37-.38,4.35-.74,5.95-.37,1.6-.8,2.88-1.3,3.82-.5.94-1.03,1.6-1.59,2.01h-2.25v12.77h6.83l.36-6h17.16l.36,6h6.83v-12.77h-3.63v-3.71Zm-17.35,3.71c.52-.69.97-1.39,1.29-2.13.43-1.01.74-2.17.93-3.46.19-1.3.34-2.83.43-4.61.09-1.52.17-3.04.25-4.57h6.24v14.77h-9.13Z"/>
      <path class="cls-1" d="m569.76,72.89h11.47v-6.53h-19.49v28.3h19.71v-6.53h-11.69v-4.73h10.93v-5.93h-10.93v-4.59Z"/>
      <path class="cls-1" d="m597.48,90.31v-4.81h4.94c2.36,0,4.26-.41,5.73-1.23,1.46-.82,2.53-1.96,3.22-3.42.68-1.46,1.02-3.17,1.02-5.11,0-2.38-.41-4.26-1.24-5.63-.82-1.37-2.05-2.34-3.66-2.9-1.62-.56-3.61-.84-5.98-.84h-12.09v28.3h8.06v-4.36Zm4.65-17.51c.38.11.71.3,1.01.55.29.26.52.6.68,1.03.17.43.25.96.25,1.6,0,.82-.13,1.5-.38,2.03-.25.53-.64.92-1.17,1.18-.53.26-1.22.39-2.06.39h-2.98v-6.95h3.48c.41,0,.8.06,1.18.17Z"/>
      <path class="cls-1" d="m642.13,89.92c-.51-1.65-1.01-3.26-1.5-4.82l-2.98-9.73c-.53-1.71-1.01-3.26-1.44-4.67-.43-1.4-.88-2.85-1.34-4.35h-10.46c-.44,1.43-.88,2.84-1.31,4.25-.44,1.4-.93,2.99-1.47,4.77l-3,9.73c-.48,1.5-.98,3.09-1.49,4.77-.52,1.69-1.01,3.29-1.47,4.79h8.18c.36-1.4.73-2.87,1.11-4.39.08-.3.14-.56.21-.85h8.67c.07.3.14.56.22.87.36,1.5.72,2.95,1.06,4.37h8.46c-.46-1.51-.95-3.09-1.46-4.74Zm-12.28-16.73l2.49,10.18h-5.64l2.57-10.18h.58Z"/>
      <path class="cls-1" d="m667.87,85.51v9.15h8.22v-28.3h-21.48c-.08,1.73-.16,3.51-.26,5.32-.09,1.81-.18,3.57-.26,5.26-.13,2.53-.34,4.62-.62,6.26-.29,1.65-.69,2.88-1.23,3.68-.53.81-1.24,1.21-2.11,1.21-.15,0-.32,0-.52-.03s-.44-.05-.73-.09l-.3,6.73c.33.08.69.16,1.09.23.4.07.83.13,1.29.17.46.04.96.06,1.49.06,1.92,0,3.44-.32,4.55-.95,1.12-.64,1.96-1.59,2.53-2.86.57-1.27.98-2.84,1.22-4.72.24-1.88.45-4.05.63-6.51.14-2.14.29-4.2.45-6.16.02-.27.04-.55.06-.82h5.98v12.39Z"/>
      <path class="cls-1" d="m692.64,66.36h-8.06v28.3h12.68c2.46,0,4.45-.41,5.96-1.22,1.51-.81,2.6-1.96,3.29-3.43.69-1.47,1.03-3.18,1.03-5.12,0-2.41-.41-4.3-1.24-5.67-.82-1.37-2.04-2.33-3.65-2.9-1.61-.56-3.6-.84-5.98-.84h-4.03v-9.13Zm3.48,15.38c.41,0,.8.06,1.18.18.38.12.71.31,1.01.57.29.26.52.6.68,1.04.17.44.25.97.25,1.61,0,.82-.13,1.5-.38,2.03-.25.54-.64.93-1.17,1.19-.53.26-1.21.39-2.04.39h-3v-7.01h3.48Z"/>
      <path class="cls-1" d="m723.09,90.31v-6.48h8.81v10.84h8.2v-28.3h-8.2v10.7h-8.81v-10.7h-8.2v28.3h8.2v-4.36Z"/>
      <path class="cls-1" d="m782.95,90.31v-23.95h-8.36v28.3h8.36v-4.36Z"/>
      <path class="cls-1" d="m767.24,93.44c1.51-.81,2.6-1.96,3.29-3.43.69-1.47,1.03-3.18,1.03-5.12,0-2.41-.41-4.3-1.24-5.67-.82-1.37-2.05-2.33-3.65-2.9-1.61-.56-3.6-.84-5.98-.84h-4.03v-9.13h-8.06v28.3h12.68c2.46,0,4.45-.41,5.96-1.22Zm-10.58-4.7v-7.01h3.47c.41,0,.8.06,1.18.18.38.12.71.31,1,.57.29.26.52.6.68,1.04.17.44.25.97.25,1.61,0,.82-.13,1.5-.37,2.03-.25.54-.64.93-1.17,1.19s-1.21.39-2.04.39h-3Z"/>
      <path class="cls-1" d="m806.65,71.09c-.96,1.48-1.92,2.95-2.88,4.42l-3.71,5.68h-.58v-14.82h-7.96v28.3h6.81c.93-1.4,1.87-2.84,2.84-4.32.97-1.48,2.02-3.08,3.18-4.81l3.77-5.72h.54v14.85h7.96v-28.3h-6.89c-1.08,1.68-2.11,3.26-3.08,4.73Z"/>
      <path class="cls-1" d="m799,63.66c1.31.58,2.97.87,4.97.87s3.7-.29,5.02-.87c1.31-.58,2.3-1.44,2.95-2.58.65-1.14.98-2.54.99-4.21h-5.8c0,.99-.25,1.81-.75,2.45-.5.64-1.31.96-2.4.96s-1.9-.34-2.4-1c-.5-.67-.75-1.54-.75-2.63l-5.79.22c.03,1.67.37,3.07,1.02,4.21.65,1.14,1.64,2,2.96,2.58Z"/>
      <path class="cls-1" d="m859.67,71.72c.79-1.83,1.57-3.61,2.32-5.36h-8.81c-.29.9-.56,1.71-.8,2.43-.24.72-.46,1.39-.66,2.02-.21.63-.41,1.26-.62,1.89-.21.64-.43,1.33-.66,2.09l-1.45,4.47h-.58l-1.51-4.53c-.24-.73-.46-1.4-.67-2.03-.21-.62-.42-1.25-.63-1.87-.21-.63-.43-1.3-.67-2.03-.25-.72-.51-1.54-.81-2.45h-9.19c.73,1.57,1.37,2.98,1.94,4.22.56,1.24,1.15,2.53,1.78,3.88l5.72,12.45c-.59,1.4-1.17,2.74-1.72,4.02-.55,1.28-1.09,2.52-1.62,3.74h8.72c.62-1.4,1.27-2.9,1.95-4.49.68-1.59,1.32-3.08,1.92-4.47l3.85-8.91c.67-1.56,1.41-3.25,2.2-5.08Z"/>
      <path class="cls-1" d="m885.93,90.31v4.36h8.2v-28.3h-8.2v10.7h-8.81v-10.7h-8.2v28.3h8.2v-10.84h8.81v6.48Z"/>
      <path class="cls-1" d="m919.77,90.28v4.39h7.96v-28.3h-6.89c-1.08,1.68-2.11,3.26-3.08,4.73-.96,1.48-1.92,2.95-2.88,4.42l-3.71,5.68h-.58v-14.82h-7.96v28.3h6.81c.93-1.4,1.87-2.84,2.84-4.32.97-1.48,2.02-3.08,3.18-4.81l3.77-5.72h.54v10.46Z"/>
      <path class="cls-1" d="m956.9,81.07c-.88-.54-1.93-.95-3.15-1.23v-.58c.99-.23,1.89-.62,2.68-1.18.79-.56,1.42-1.29,1.88-2.18.46-.89.69-1.93.69-3.13,0-.95-.16-1.82-.5-2.6-.33-.78-.9-1.45-1.7-2.02-.8-.57-1.89-1.01-3.26-1.32-1.38-.31-3.12-.47-5.22-.47h-12.05v28.3h10.58c2.54,0,4.64-.19,6.3-.57,1.65-.38,2.95-.92,3.89-1.62.94-.7,1.6-1.54,1.99-2.53.38-.99.58-2.09.58-3.31,0-1.36-.23-2.5-.69-3.4-.46-.91-1.14-1.63-2.02-2.17Zm-12.58-6.5v-2.51h3.37c.99,0,1.73.25,2.2.75.47.5.7,1.2.7,2.11,0,.61-.12,1.13-.37,1.56-.24.43-.6.76-1.08.99-.48.23-1.07.35-1.77.35h-3.06v-3.25Zm6.42,13.01c-.26.44-.65.76-1.17.97s-1.16.32-1.93.32h-3.32v-5.8h3.5c1.1,0,1.92.24,2.48.73.56.49.83,1.2.83,2.14,0,.65-.13,1.19-.39,1.63Z"/>
      <path class="cls-1" d="m986.64,88.13h-11.69v-4.73h10.93v-5.93h-10.93v-4.59h11.47v-6.53h-19.49v28.3h19.71v-6.53Z"/>
      <path class="cls-1" d="m1002.72,90.31v-4.81h4.94c2.36,0,4.26-.41,5.73-1.23,1.46-.82,2.53-1.96,3.21-3.42.68-1.46,1.02-3.17,1.02-5.11,0-2.38-.41-4.26-1.24-5.63-.82-1.37-2.05-2.34-3.66-2.9-1.62-.56-3.61-.84-5.98-.84h-12.09v28.3h8.06v-4.36Zm4.65-17.51c.38.11.71.3,1,.55.29.26.52.6.68,1.03.17.43.25.96.25,1.6,0,.82-.13,1.5-.37,2.03-.25.53-.64.92-1.17,1.18-.53.26-1.22.39-2.06.39h-2.98v-6.95h3.48c.41,0,.8.06,1.18.17Z"/>
      <path class="cls-1" d="m1041.43,95.14c.82-.07,1.62-.17,2.39-.31.77-.14,1.51-.32,2.21-.54.7-.23,1.34-.48,1.91-.77l-.4-7.45c-.65.48-1.29.88-1.91,1.21-.63.33-1.25.59-1.88.77-.62.19-1.24.32-1.85.41-.61.09-1.2.13-1.78.13-1.33,0-2.48-.21-3.46-.65-.98-.43-1.79-1.02-2.43-1.76-.64-.74-1.12-1.6-1.44-2.57-.32-.97-.48-1.99-.48-3.07,0-1.75.31-3.21.93-4.39.62-1.18,1.47-2.06,2.54-2.65,1.07-.59,2.29-.88,3.65-.88.74,0,1.54.1,2.38.28.85.19,1.75.48,2.69.88.94.4,1.94.94,2.97,1.6l.58-7.54c-.57-.3-1.22-.58-1.96-.82-.74-.24-1.52-.46-2.35-.65-.83-.19-1.7-.35-2.59-.46-.89-.11-1.79-.17-2.69-.17-3.15,0-5.82.65-8,1.94-2.18,1.29-3.85,3.05-4.98,5.29-1.14,2.24-1.71,4.77-1.71,7.6,0,2.24.35,4.25,1.05,6.06.7,1.8,1.71,3.34,3.04,4.62,1.32,1.28,2.92,2.27,4.79,2.96,1.87.69,3.97,1.03,6.3,1.03.82,0,1.64-.03,2.46-.1Z"/>
      <path class="cls-1" d="m1072.49,79.82h.54v14.85h7.96v-28.3h-6.89c-1.08,1.68-2.11,3.26-3.08,4.73-.96,1.48-1.92,2.95-2.88,4.42l-3.71,5.68h-.58v-14.82h-7.96v28.3h6.81c.93-1.4,1.87-2.84,2.84-4.32.97-1.48,2.02-3.08,3.18-4.81l3.77-5.72Z"/>
      <path class="cls-1" d="m1095.14,73.44h.91v21.22h8.16v-21.22h7.88v-7.08h-23.92v7.08h6.97Z"/>
      <path class="cls-1" d="m1130.82,88.13h-3.59v-4.73h10.93v-5.93h-10.93v-4.59h11.47v-6.53h-19.49v28.3h19.71v-6.53h-8.1Z"/>
      <path class="cls-1" d="m1145.54,66.36v7.08h7.88v21.22h8.16v-21.22h7.88v-7.08h-23.92Z"/>
      <path class="cls-1" d="m472.41,127.74c-.96,1.48-1.92,2.95-2.88,4.42l-3.71,5.68h-.58v-14.83h-7.96v28.31h6.81c.93-1.4,1.87-2.84,2.84-4.32.97-1.48,2.02-3.08,3.18-4.81l3.77-5.72h.54v14.85h7.96v-28.31h-6.89c-1.08,1.68-2.11,3.26-3.07,4.73Z"/>
      <path class="cls-1" d="m524.24,142.18l-1.25-9.59c-.23-1.75-.44-3.39-.64-4.92-.2-1.53-.4-3.09-.61-4.67h-8.14c-.51,1.47-.99,2.81-1.42,4.03-.43,1.22-.87,2.45-1.32,3.69l-2.6,7.33h-.51l-2.78-7.35c-.46-1.23-.93-2.47-1.4-3.72-.47-1.25-.97-2.58-1.5-3.98h-8.25c-.22,1.59-.41,3.15-.6,4.69-.19,1.54-.38,3.17-.59,4.88l-1.21,9.57c-.21,1.72-.41,3.32-.58,4.79-.18,1.48-.36,2.93-.55,4.38h7.56c.21-1.68.41-3.29.6-4.82.18-1.53.36-2.98.52-4.33l.69-5.66h.53l2.18,6.13c.36.97.71,1.95,1.06,2.95.35,1,.7,1.99,1.04,2.96.34.97.67,1.9.99,2.77h5.38c.4-1.33.82-2.72,1.26-4.19.44-1.47.89-2.97,1.34-4.49l1.83-6.13h.53l.72,5.72c.16,1.34.33,2.76.53,4.28.19,1.52.39,3.12.58,4.81h7.78c-.18-1.47-.37-2.93-.56-4.38-.19-1.45-.39-3.03-.61-4.75Z"/>
      <path class="cls-1" d="m544.9,144.78h-3.59v-4.73h10.94v-5.93h-10.94v-4.59h11.47v-6.53h-19.49v28.31h19.71v-6.53h-8.1Z"/>
      <path class="cls-1" d="m578.05,127.5v6.2h-8.81v-10.7h-8.2v28.31h8.2v-10.84h8.81v10.84h8.2v-28.31h-8.2v4.5Z"/>
      <path class="cls-1" d="m609.89,127.74c-.96,1.48-1.92,2.95-2.88,4.42l-3.71,5.68h-.58v-14.83h-7.96v28.31h6.81c.93-1.4,1.87-2.84,2.84-4.32.97-1.48,2.02-3.08,3.18-4.81l3.77-5.72h.54v14.85h7.96v-28.31h-6.89c-1.08,1.68-2.11,3.26-3.08,4.73Z"/>
      <path class="cls-1" d="m655.04,127.74c-.96,1.48-1.92,2.95-2.88,4.42l-3.71,5.68h-.58v-14.83h-7.96v28.31h6.81c.93-1.4,1.87-2.84,2.84-4.32.97-1.48,2.02-3.08,3.18-4.81l3.77-5.72h.54v14.85h7.96v-28.31h-6.89c-1.08,1.68-2.11,3.26-3.08,4.73Z"/>
      <path class="cls-1" d="m706.87,142.18l-1.25-9.59c-.23-1.75-.44-3.39-.63-4.92-.2-1.53-.4-3.09-.61-4.67h-8.14c-.51,1.47-.99,2.81-1.42,4.03-.43,1.22-.87,2.45-1.32,3.69l-2.6,7.33h-.51l-2.78-7.35c-.46-1.23-.93-2.47-1.4-3.72-.47-1.25-.97-2.58-1.5-3.98h-8.26c-.21,1.59-.41,3.15-.6,4.69-.19,1.54-.38,3.17-.59,4.88l-1.21,9.57c-.21,1.72-.41,3.32-.58,4.79-.18,1.48-.36,2.93-.55,4.38h7.56c.21-1.68.41-3.29.6-4.82.19-1.53.36-2.98.52-4.33l.69-5.66h.54l2.18,6.13c.36.97.71,1.95,1.06,2.95.35,1,.7,1.99,1.04,2.96.35.97.67,1.9.99,2.77h5.38c.39-1.33.82-2.72,1.26-4.19.44-1.47.89-2.97,1.34-4.49l1.83-6.13h.53l.72,5.72c.16,1.34.33,2.76.53,4.28.19,1.52.39,3.12.58,4.81h7.78c-.19-1.47-.37-2.93-.56-4.38-.19-1.45-.4-3.03-.61-4.75Z"/>
      <path class="cls-1" d="m749.23,142.18l-1.25-9.59c-.23-1.75-.44-3.39-.64-4.92-.2-1.53-.4-3.09-.61-4.67h-8.14c-.51,1.47-.99,2.81-1.42,4.03-.43,1.22-.87,2.45-1.32,3.69l-2.6,7.33h-.51l-2.78-7.35c-.46-1.23-.93-2.47-1.4-3.72-.47-1.25-.97-2.58-1.5-3.98h-8.25c-.22,1.59-.41,3.15-.6,4.69-.19,1.54-.38,3.17-.59,4.88l-1.21,9.57c-.21,1.72-.41,3.32-.58,4.79-.18,1.48-.36,2.93-.55,4.38h7.56c.21-1.68.41-3.29.6-4.82.18-1.53.36-2.98.52-4.33l.69-5.66h.53l2.18,6.13c.36.97.71,1.95,1.06,2.95.35,1,.7,1.99,1.04,2.96.34.97.67,1.9.99,2.77h5.38c.4-1.33.82-2.72,1.26-4.19.44-1.47.89-2.97,1.34-4.49l1.83-6.13h.53l.72,5.72c.16,1.34.33,2.76.53,4.28.19,1.52.39,3.12.58,4.81h7.78c-.18-1.47-.37-2.93-.56-4.38-.19-1.45-.39-3.03-.61-4.75Z"/>
      <path class="cls-1" d="m781.6,141.74l-2.98-9.73c-.53-1.71-1.01-3.26-1.44-4.67-.43-1.4-.87-2.85-1.34-4.35h-10.46c-.44,1.43-.87,2.85-1.31,4.25-.44,1.4-.93,2.99-1.47,4.77l-3,9.73c-.48,1.5-.98,3.09-1.49,4.77-.52,1.68-1.01,3.28-1.47,4.79h8.17c.36-1.4.73-2.87,1.12-4.39.07-.3.14-.56.21-.85h8.67c.07.3.14.56.22.87.36,1.49.71,2.95,1.06,4.37h8.46c-.46-1.51-.95-3.09-1.46-4.74-.51-1.65-1.01-3.26-1.5-4.82Zm-10.78-11.91l2.5,10.18h-5.64l2.57-10.18h.58Z"/>
      <path class="cls-1" d="m808.42,127.5v6.2h-8.81v-10.7h-8.2v28.31h8.2v-10.84h8.81v10.84h8.2v-28.31h-8.2v4.5Z"/>
      <path class="cls-1" d="m840.83,125.44c-.24.72-.46,1.4-.67,2.02-.21.63-.41,1.26-.61,1.9-.21.64-.43,1.33-.66,2.09l-1.45,4.47h-.58l-1.51-4.53c-.24-.73-.46-1.4-.67-2.03-.21-.62-.42-1.25-.63-1.87-.21-.63-.43-1.3-.67-2.03-.25-.72-.51-1.54-.81-2.45h-9.19c.73,1.57,1.37,2.98,1.94,4.22.56,1.24,1.15,2.53,1.78,3.88l5.72,12.45c-.59,1.4-1.17,2.74-1.72,4.02-.55,1.28-1.09,2.52-1.62,3.74h8.72c.62-1.4,1.27-2.9,1.95-4.49.68-1.59,1.32-3.08,1.92-4.47l3.85-8.91c.67-1.56,1.41-3.25,2.2-5.08.79-1.83,1.57-3.61,2.32-5.36h-8.81c-.29.9-.56,1.71-.8,2.43Z"/>
      <path class="cls-1" d="m872.49,127.74c-.96,1.48-1.92,2.95-2.88,4.42l-3.71,5.68h-.58v-14.83h-7.96v28.31h6.81c.93-1.4,1.87-2.84,2.84-4.32.97-1.48,2.02-3.08,3.18-4.81l3.77-5.72h.54v14.85h7.96v-28.31h-6.89c-1.08,1.68-2.11,3.26-3.08,4.73Z"/>
      <path class="cls-1" d="m894.94,128.33c-.09,1.81-.18,3.57-.26,5.26-.13,2.53-.34,4.61-.62,6.26-.29,1.65-.69,2.88-1.23,3.68-.53.81-1.24,1.21-2.11,1.21-.15,0-.32,0-.52-.03-.2-.02-.44-.05-.73-.09l-.3,6.73c.33.08.69.16,1.09.23.4.07.83.13,1.29.17.46.04.96.06,1.49.06,1.92,0,3.44-.32,4.55-.95,1.12-.63,1.97-1.59,2.53-2.86.57-1.27.98-2.84,1.22-4.72.24-1.88.45-4.05.63-6.51.14-2.14.29-4.2.45-6.16.02-.27.04-.55.06-.83h5.98v21.54h8.22v-28.31h-21.48c-.08,1.73-.16,3.51-.26,5.32Z"/>
      <path class="cls-1" d="m948.49,141.74l-2.98-9.73c-.53-1.71-1.01-3.26-1.44-4.67-.43-1.4-.88-2.85-1.34-4.35h-10.46c-.44,1.43-.87,2.85-1.31,4.25-.44,1.4-.93,2.99-1.47,4.77l-3,9.73c-.48,1.5-.98,3.09-1.49,4.77-.52,1.68-1.01,3.28-1.47,4.79h8.18c.36-1.4.73-2.87,1.11-4.39.08-.3.14-.56.21-.85h8.67c.07.3.14.56.22.87.36,1.49.71,2.95,1.06,4.37h8.46c-.46-1.51-.95-3.09-1.46-4.74-.51-1.65-1.01-3.26-1.5-4.82Zm-10.78-11.91l2.49,10.18h-5.64l2.57-10.18h.58Z"/>
      <path class="cls-1" d="m991.03,144.5c-.79-1.27-1.54-2.45-2.24-3.53l-3.21-5.1,2.93-4.07c1.07-1.48,2.13-2.95,3.19-4.4,1.05-1.45,2.12-2.92,3.21-4.4h-9.29c-.81,1.3-1.52,2.43-2.13,3.39-.61.97-1.23,1.93-1.86,2.9l-2.6,4.09h-1.07v-10.38h-8.16v28.31h8.16v-11.57h1.19l2.82,5.06c.56,1.03,1.13,2.08,1.72,3.14.59,1.06,1.21,2.18,1.86,3.37h9.77c-.54-.89-1.19-1.92-1.95-3.12-.75-1.19-1.53-2.42-2.32-3.69Z"/>
      <path class="cls-1" d="m1025.43,141.74l-2.98-9.73c-.53-1.71-1.01-3.26-1.44-4.67s-.88-2.85-1.34-4.35h-10.46c-.44,1.43-.88,2.85-1.31,4.25-.44,1.4-.93,2.99-1.47,4.77l-3,9.73c-.48,1.5-.98,3.09-1.49,4.77-.52,1.68-1.01,3.28-1.47,4.79h8.18c.36-1.4.73-2.87,1.12-4.39.07-.3.14-.56.21-.85h8.67c.08.3.15.56.22.87.36,1.49.72,2.95,1.06,4.37h8.46c-.46-1.51-.95-3.09-1.46-4.74-.51-1.65-1.01-3.26-1.5-4.82Zm-10.78-11.91l2.49,10.18h-5.64l2.57-10.18h.58Z"/>
      <path class="cls-1" d="m1052.24,127.5v6.2h-8.81v-10.7h-8.2v28.31h8.2v-10.84h8.81v10.84h8.2v-28.31h-8.2v4.5Z"/>
      <path class="cls-1" d="m1067.57,130.09h7.88v21.22h8.16v-21.22h7.88v-7.09h-23.92v7.09Z"/>
      <path class="cls-1" d="m1118.68,141.74l-2.98-9.73c-.53-1.71-1.01-3.26-1.44-4.67-.43-1.4-.87-2.85-1.34-4.35h-10.46c-.44,1.43-.88,2.85-1.31,4.25-.44,1.4-.93,2.99-1.47,4.77l-2.99,9.73c-.48,1.5-.98,3.09-1.49,4.77-.52,1.68-1.01,3.28-1.47,4.79h8.17c.36-1.4.73-2.87,1.12-4.39.07-.3.14-.56.21-.85h8.67c.08.3.15.56.22.87.36,1.49.72,2.95,1.06,4.37h8.46c-.46-1.51-.95-3.09-1.46-4.74-.51-1.65-1.01-3.26-1.5-4.82Zm-10.78-11.91l2.5,10.18h-5.64l2.57-10.18h.58Z"/>
    </g>
  </g>
</svg>