<?xml version="1.0" encoding="UTF-8"?>
<svg id="_Слой_2" data-name="Слой 2" xmlns="http://www.w3.org/2000/svg" width="171.9mm" height="115.41mm" viewBox="0 0 487.26 327.14">
  <defs>
    <style>
      .cls-1 {
        fill: #21145f;
      }
    </style>
  </defs>
  <g id="Layer_1" data-name="Layer 1">
    <g>
      <g>
        <rect class="cls-1" y=".03" width="22.03" height="148.34"/>
        <path class="cls-1" d="m244.91,68.54c-4.32-4.15-9.07-7.64-14.15-10.6-1.28-.74-2.56-1.5-3.89-2.17,9.05-9.33,15.86-20.84,19.53-33.68V.03h-76.28v148.34h100.4l.37-10.66c.94-27.19-8.53-52.4-25.98-69.16m-52.76-46.43h30.95c-4.38,10.59-11.79,19.62-21.16,25.96-3.2-.46-6.45-.82-9.79-.94v-25.02Zm0,104.17v-57.04c14.98.74,27.81,5.92,37.51,15.24,10.69,10.27,17.33,25.13,18.9,41.8h-56.41Z"/>
        <polygon class="cls-1" points="369 22.42 369 .03 314.76 .03 292.72 .03 292.72 22.42 292.72 148.36 314.76 148.36 314.76 69.14 343.77 69.14 343.77 46.74 314.76 46.74 314.76 22.42 369 22.42"/>
        <path class="cls-1" d="m148.32,137.73c.47-27.2-8.53-52.4-25.98-69.17-7.36-7.07-15.9-12.38-25.38-15.99,16.17-12.61,27.42-31.26,30.24-52.58h-22.32c-3.64,19.67-17.22,35.86-35.29,43.16V.05h-22.03v148.34h22.03v-79.12c14.98.74,27.81,5.92,37.51,15.24,9.25,8.89,15.67,21.17,17.99,35.16,2.4,14.51,1.63,28.73,1.63,28.73h21.61s-.05-8,0-10.66"/>
        <path class="cls-1" d="m465.15,98.16c0,15.48-12.6,28.09-28.09,28.09s-28.08-12.6-28.08-28.09V.03h-22.12v98.14c0,27.72,22.48,50.2,50.2,50.2s50.2-22.48,50.2-50.2V.03h-22.11v98.14Z"/>
      </g>
      <g>
        <path class="cls-1" d="m8.7,208.9v-23.95H.35v28.31h8.34v-4.36Z"/>
        <path class="cls-1" d="m30.86,210.48c.34.97.67,1.89.99,2.77h5.37c.4-1.32.81-2.72,1.26-4.19.44-1.47.89-2.96,1.34-4.49l1.82-6.13h.54l.71,5.72c.16,1.34.33,2.76.52,4.28.19,1.51.39,3.12.58,4.81h7.76c-.19-1.47-.37-2.93-.56-4.38-.19-1.45-.39-3.03-.6-4.76l-1.25-9.59c-.22-1.75-.44-3.39-.63-4.92s-.4-3.09-.61-4.67h-8.12c-.52,1.47-.99,2.81-1.42,4.03-.43,1.22-.87,2.45-1.32,3.69l-2.59,7.33h-.52l-2.77-7.35c-.46-1.23-.93-2.47-1.4-3.72-.47-1.25-.97-2.58-1.5-3.98h-8.24c-.21,1.59-.41,3.15-.59,4.69-.18,1.54-.38,3.17-.59,4.87l-1.21,9.57c-.21,1.72-.41,3.32-.58,4.8-.18,1.47-.36,2.93-.55,4.38h7.55c.21-1.68.41-3.29.59-4.82.18-1.54.36-2.98.51-4.33l.69-5.66h.54l2.18,6.13c.36.97.71,1.95,1.06,2.95.35,1,.7,1.99,1.04,2.96Z"/>
        <path class="cls-1" d="m67.1,208.43c.18-1.54.36-2.98.52-4.33l.69-5.66h.54l2.18,6.13c.36.97.71,1.95,1.06,2.95.35,1,.7,1.99,1.04,2.96.34.97.67,1.89.99,2.77h5.37c.39-1.32.81-2.72,1.26-4.19s.89-2.96,1.34-4.49l1.82-6.13h.53l.71,5.72c.16,1.34.33,2.76.53,4.28.19,1.51.39,3.12.58,4.81h7.76c-.19-1.47-.37-2.93-.56-4.38-.19-1.45-.39-3.03-.6-4.76l-1.25-9.59c-.22-1.75-.43-3.39-.63-4.92s-.4-3.09-.61-4.67h-8.12c-.52,1.47-.99,2.81-1.42,4.03-.43,1.22-.87,2.45-1.32,3.69l-2.59,7.33h-.52l-2.77-7.35c-.46-1.23-.93-2.47-1.4-3.72-.47-1.25-.97-2.58-1.5-3.98h-8.24c-.21,1.59-.41,3.15-.59,4.69-.19,1.54-.38,3.17-.59,4.87l-1.21,9.57c-.21,1.72-.41,3.32-.58,4.8-.18,1.47-.36,2.93-.55,4.38h7.55c.21-1.68.41-3.29.59-4.82Z"/>
        <path class="cls-1" d="m118.38,208.01c.08.3.14.56.22.87.36,1.5.72,2.95,1.06,4.37h8.44c-.46-1.51-.95-3.09-1.45-4.75-.51-1.66-1.01-3.26-1.5-4.82l-2.97-9.73c-.53-1.7-1.01-3.26-1.44-4.66-.43-1.41-.88-2.85-1.34-4.35h-10.44c-.44,1.43-.87,2.85-1.31,4.25-.44,1.4-.93,2.99-1.47,4.76l-2.99,9.73c-.48,1.49-.97,3.08-1.49,4.77-.52,1.69-1,3.29-1.46,4.79h8.16c.35-1.4.73-2.87,1.11-4.39.08-.3.14-.56.21-.85h8.65Zm-3.99-16.24l2.49,10.18h-5.63l2.57-10.18h.57Z"/>
        <path class="cls-1" d="m142.56,208.9v-10.28h.55l3.82,5.64c1.15,1.72,2.21,3.31,3.2,4.76.98,1.45,1.94,2.87,2.86,4.23h6.97v-28.31h-7.62v14.61h-.57l-3.74-5.58c-.98-1.47-1.95-2.92-2.91-4.36-.96-1.44-2.01-2.99-3.13-4.67h-7.05v28.31h7.62v-4.36Z"/>
        <path class="cls-1" d="m187.65,212.43c1.8-.93,3.13-2.27,3.99-4.01.86-1.74,1.29-3.82,1.29-6.22v-17.25h-8.16v16.85c0,1.17-.14,2.15-.41,2.95-.27.8-.71,1.41-1.31,1.82-.6.41-1.4.62-2.39.62s-1.74-.21-2.35-.62c-.62-.41-1.08-1.02-1.38-1.82-.3-.8-.45-1.77-.45-2.93v-16.87h-8.16v17.23c0,2.41.4,4.49,1.21,6.24.81,1.75,2.11,3.09,3.92,4.02,1.81.93,4.22,1.4,7.23,1.4,2.84,0,5.16-.47,6.96-1.4Z"/>
        <path class="cls-1" d="m220.93,206.72h-11.67v-4.72h10.91v-5.93h-10.91v-4.59h11.45v-6.53h-19.45v28.31h19.67v-6.53Z"/>
        <path class="cls-1" d="m248.72,206.17h-11.63v-21.22h-8.18v28.31h19.81v-7.09Z"/>
        <path class="cls-1" d="m291.02,210.14c-.75-1.19-1.53-2.42-2.32-3.69-.79-1.27-1.54-2.45-2.24-3.54l-3.2-5.1,2.93-4.07c1.07-1.48,2.13-2.95,3.18-4.4,1.05-1.45,2.12-2.91,3.2-4.4h-9.27c-.81,1.3-1.52,2.43-2.13,3.4-.61.96-1.23,1.93-1.85,2.9l-2.59,4.09h-1.07v-10.38h-8.14v28.31h8.14v-11.57h1.19l2.81,5.06c.55,1.03,1.13,2.08,1.71,3.14.59,1.06,1.2,2.18,1.85,3.38h9.74c-.54-.89-1.19-1.93-1.94-3.12Z"/>
        <path class="cls-1" d="m324.48,208.51c-.51-1.66-1.01-3.26-1.49-4.82l-2.97-9.73c-.53-1.7-1.01-3.26-1.44-4.66-.43-1.41-.88-2.85-1.34-4.35h-10.44c-.44,1.43-.87,2.85-1.31,4.25-.44,1.4-.93,2.99-1.47,4.76l-2.99,9.73c-.47,1.49-.97,3.08-1.48,4.77-.52,1.69-1,3.29-1.46,4.79h8.16c.35-1.4.73-2.87,1.11-4.39.08-.3.14-.56.21-.85h8.65c.07.3.14.56.22.87.36,1.5.72,2.95,1.06,4.37h8.44c-.46-1.51-.95-3.09-1.46-4.75Zm-12.25-16.74l2.49,10.18h-5.63l2.57-10.18h.58Z"/>
        <path class="cls-1" d="m357.8,208.9v-23.95h-7.62v14.61h-.57l-3.74-5.58c-.98-1.47-1.95-2.92-2.91-4.36-.96-1.44-2.01-2.99-3.13-4.67h-7.05v28.31h7.62v-14.63h.55l3.82,5.64c1.15,1.72,2.21,3.31,3.2,4.76s1.94,2.87,2.86,4.23h6.97v-4.36Z"/>
        <path class="cls-1" d="m364.97,184.94v7.09h7.86v21.22h8.14v-21.22h7.86v-7.09h-23.86Z"/>
        <path class="cls-1" d="m6.59,269.91h4.14c2.54,0,4.63-.19,6.28-.56,1.65-.38,2.94-.92,3.88-1.62s1.6-1.54,1.98-2.53c.38-.99.57-2.09.57-3.31,0-1.36-.23-2.5-.7-3.4-.46-.91-1.13-1.63-2.01-2.18-.88-.54-1.92-.95-3.14-1.23v-.58c.99-.22,1.88-.62,2.67-1.18.79-.56,1.42-1.29,1.88-2.17.46-.89.69-1.93.69-3.13,0-.96-.16-1.82-.5-2.6-.33-.78-.89-1.45-1.69-2.03-.8-.57-1.89-1.01-3.26-1.32-1.37-.31-3.11-.47-5.21-.47H.18v28.31h6.42Zm8.01-7.09c-.26.44-.65.76-1.17.97-.52.21-1.17.32-1.93.32h-3.31v-5.8h3.48c1.1,0,1.92.25,2.48.74.55.49.83,1.2.83,2.14,0,.65-.13,1.19-.39,1.63Zm-6.41-13.01v-2.51h3.37c.99,0,1.72.25,2.19.75.47.5.7,1.21.7,2.1,0,.61-.12,1.13-.37,1.56-.24.43-.6.76-1.08,1-.47.23-1.06.35-1.76.35h-3.05v-3.25Z"/>
        <path class="cls-1" d="m38.05,265.52c.07-.3.14-.56.21-.85h8.65c.08.3.14.56.22.87.36,1.5.72,2.95,1.06,4.37h8.44c-.46-1.51-.95-3.09-1.45-4.74-.51-1.66-1.01-3.26-1.5-4.82l-2.97-9.73c-.53-1.7-1.01-3.26-1.44-4.66-.43-1.41-.87-2.85-1.34-4.35h-10.44c-.44,1.43-.87,2.85-1.31,4.25-.44,1.4-.93,2.99-1.47,4.76l-2.99,9.73c-.48,1.49-.97,3.08-1.48,4.77-.52,1.68-1,3.28-1.46,4.79h8.16c.36-1.4.73-2.87,1.11-4.39Zm4.87-17.09l2.49,10.18h-5.63l2.57-10.18h.57Z"/>
        <path class="cls-1" d="m83.26,262.82h-11.63v-21.22h-8.18v28.31h19.81v-7.09Z"/>
        <path class="cls-1" d="m85.56,248.69h7.86v21.22h8.14v-21.22h7.86v-7.09h-23.86v7.09Z"/>
        <path class="cls-1" d="m116.71,246.1v23.81h8.34v-28.31h-8.34v4.5Z"/>
        <path class="cls-1" d="m150.24,270.39c.82-.07,1.61-.17,2.39-.31.77-.14,1.51-.32,2.21-.55.7-.22,1.33-.48,1.9-.77l-.4-7.44c-.65.48-1.28.88-1.91,1.21s-1.25.59-1.87.77-1.23.32-1.84.41c-.61.09-1.2.13-1.78.13-1.32,0-2.47-.22-3.44-.65-.98-.43-1.79-1.01-2.43-1.76-.64-.74-1.12-1.6-1.44-2.57-.32-.97-.47-1.99-.47-3.06,0-1.75.31-3.21.93-4.39.62-1.18,1.47-2.06,2.54-2.65,1.07-.59,2.28-.88,3.65-.88.74,0,1.53.09,2.38.28.84.18,1.74.48,2.68.88.94.4,1.93.94,2.96,1.6l.57-7.55c-.57-.3-1.22-.58-1.95-.82-.73-.25-1.51-.46-2.35-.66-.83-.19-1.69-.34-2.58-.46-.89-.11-1.79-.17-2.68-.17-3.14,0-5.8.65-7.98,1.93-2.18,1.29-3.84,3.05-4.97,5.29-1.13,2.24-1.7,4.77-1.7,7.6,0,2.24.35,4.25,1.05,6.06.7,1.8,1.71,3.34,3.03,4.63,1.32,1.28,2.92,2.27,4.78,2.96,1.87.69,3.96,1.03,6.29,1.03.82,0,1.64-.03,2.46-.1Z"/>
        <path class="cls-1" d="m184.13,248.37h11.21v-6.77h-19.19v28.31h7.98v-10.48h10.65v-6.48h-10.65v-4.58Z"/>
        <path class="cls-1" d="m222.69,263.38h-11.66v-4.72h10.91v-5.93h-10.91v-4.59h11.45v-6.53h-19.45v28.31h19.67v-6.53Z"/>
        <path class="cls-1" d="m255.34,261.27c.54-1.73.8-3.59.8-5.59,0-2.25-.3-4.25-.91-6-.61-1.75-1.49-3.22-2.64-4.42-1.16-1.2-2.57-2.11-4.24-2.73-1.67-.62-3.58-.93-5.71-.93h-11.96v28.31h10.32c2.8,0,5.17-.36,7.11-1.08,1.94-.72,3.5-1.73,4.67-3.03,1.18-1.3,2.03-2.81,2.56-4.54Zm-8.35-1.65c-.42,1.19-1.12,2.12-2.1,2.8-.98.68-2.29,1.02-3.94,1.02h-2.1v-15.37h2.36c1.13,0,2.11.18,2.91.54.81.36,1.47.87,1.99,1.54.52.67.9,1.46,1.15,2.37.24.92.37,1.93.37,3.06,0,1.51-.21,2.86-.63,4.04Z"/>
        <path class="cls-1" d="m275.14,263.38h-3.59v-4.72h10.91v-5.93h-10.91v-4.59h11.45v-6.53h-19.45v28.31h19.67v-6.53h-8.08Z"/>
        <path class="cls-1" d="m312.93,264.43c-.61-1.01-1.19-1.95-1.73-2.84l-2.31-3.78c.32-.12.71-.19,1-.33,1.41-.72,2.45-1.71,3.12-2.98.67-1.27,1-2.75,1-4.45,0-2.17-.44-3.87-1.33-5.1-.88-1.23-2.16-2.1-3.84-2.6-1.67-.5-3.71-.75-6.1-.75h-11.57v28.31h8.02v-10.21h2.13l2.4,4.33c.53.93,1.06,1.87,1.61,2.84.55.97,1.12,1.98,1.71,3.04h9.21c-.45-.73-.96-1.57-1.55-2.53-.58-.96-1.18-1.94-1.79-2.95Zm-13.73-12.03v-4.57h3.31c.41,0,.8.05,1.17.16.37.11.7.28.99.53.29.25.52.58.67.98.16.41.24.91.24,1.52,0,.9-.14,1.6-.43,2.1s-.69.84-1.22,1.03c-.53.19-1.15.29-1.86.29h-2.87v-2.05Z"/>
        <path class="cls-1" d="m346.28,260.34l-2.97-9.73c-.53-1.7-1.01-3.26-1.44-4.66-.43-1.41-.88-2.85-1.34-4.35h-10.44c-.44,1.43-.87,2.85-1.31,4.25-.44,1.4-.93,2.99-1.47,4.76l-2.99,9.73c-.48,1.49-.97,3.08-1.49,4.77-.52,1.68-1,3.28-1.46,4.79h8.16c.35-1.4.73-2.87,1.11-4.39.08-.3.14-.56.21-.85h8.65c.08.3.14.56.22.87.36,1.5.72,2.95,1.06,4.37h8.44c-.46-1.51-.95-3.09-1.45-4.74-.51-1.66-1.01-3.26-1.5-4.82Zm-10.75-11.91l2.49,10.18h-5.63l2.57-10.18h.57Z"/>
        <path class="cls-1" d="m370.58,262.82h-6.34v-21.22h-8.18v28.31h19.8v-7.09h-5.29Z"/>
        <path class="cls-1" d="m16.44,302.76v12.36c0,1.17-.14,2.15-.41,2.95-.27.8-.71,1.41-1.31,1.82-.6.41-1.4.62-2.39.62s-1.73-.21-2.35-.62c-.62-.41-1.08-1.01-1.38-1.82-.3-.8-.45-1.77-.45-2.93v-16.87H0v17.23c0,2.41.4,4.49,1.21,6.23.8,1.75,2.11,3.09,3.92,4.02,1.81.93,4.22,1.4,7.23,1.4,2.84,0,5.16-.47,6.96-1.4,1.8-.93,3.13-2.27,3.99-4.01.86-1.74,1.29-3.82,1.29-6.22v-17.25h-8.16v4.5Z"/>
        <path class="cls-1" d="m50.37,302.76v10.11h-.57l-3.74-5.58c-.98-1.47-1.95-2.92-2.91-4.36-.97-1.44-2.01-3-3.13-4.68h-7.05v28.31h7.62v-14.63h.55l3.82,5.64c1.15,1.72,2.21,3.31,3.2,4.76.99,1.45,1.94,2.86,2.86,4.23h6.97v-28.31h-7.62v4.5Z"/>
        <path class="cls-1" d="m66.7,302.76v23.81h8.34v-28.31h-8.34v4.5Z"/>
        <path class="cls-1" d="m99.3,303.55c-.41,1.82-.81,3.57-1.19,5.25l-2.14,9.51h-.55l-1.96-9.47c-.33-1.65-.69-3.41-1.08-5.29-.39-1.87-.76-3.63-1.12-5.29h-9.07c.32,1.11.65,2.28,1,3.51.35,1.23.69,2.45,1.03,3.64.34,1.2.65,2.31.94,3.33l2.52,8.86c.4,1.38.82,2.86,1.27,4.46.45,1.59.88,3.1,1.29,4.52h10.89c.42-1.42.86-2.92,1.31-4.5.45-1.58.88-3.07,1.29-4.48l2.57-8.9c.29-1.04.61-2.15.95-3.32.35-1.17.69-2.36,1.04-3.57.35-1.21.68-2.39,1-3.55h-8.79c-.38,1.71-.78,3.47-1.19,5.29Z"/>
        <path class="cls-1" d="m127.86,320.04h-3.59v-4.73h10.91v-5.93h-10.91v-4.59h11.45v-6.53h-19.45v28.31h19.67v-6.53h-8.08Z"/>
        <path class="cls-1" d="m165.66,321.09c-.62-1.01-1.19-1.95-1.73-2.84l-2.31-3.78c.33-.12.71-.18,1-.33,1.41-.72,2.45-1.7,3.12-2.98.67-1.27,1-2.75,1-4.44,0-2.17-.44-3.87-1.33-5.1-.89-1.23-2.17-2.1-3.84-2.6-1.68-.5-3.71-.76-6.1-.76h-11.57v28.31h8.02v-10.2h2.13l2.4,4.33c.53.93,1.06,1.87,1.61,2.84.55.97,1.12,1.98,1.71,3.04h9.21c-.45-.73-.96-1.57-1.54-2.53-.58-.96-1.18-1.94-1.79-2.95Zm-13.74-12.03v-4.57h3.31c.41,0,.8.05,1.17.16.37.11.7.28.99.54.29.25.52.58.67.98.16.41.24.91.24,1.52,0,.9-.14,1.6-.43,2.1-.28.5-.69.84-1.22,1.03-.53.19-1.15.29-1.86.29h-2.87v-2.05Z"/>
        <path class="cls-1" d="m192.94,311.55c-1.31-.74-3.09-1.42-5.35-2.05-.98-.29-1.78-.57-2.42-.84-.63-.26-1.1-.57-1.41-.91-.3-.34-.45-.77-.45-1.29s.14-.94.43-1.27c.29-.33.69-.58,1.2-.74.51-.16,1.1-.24,1.77-.24s1.46.09,2.33.26c.86.17,1.76.43,2.67.78.92.35,1.81.78,2.68,1.3l.55-6.97c-.57-.27-1.24-.51-2.01-.75-.77-.23-1.6-.44-2.48-.61-.88-.18-1.78-.32-2.71-.43-.92-.11-1.83-.16-2.73-.16-2.36,0-4.31.37-5.83,1.1-1.53.74-2.66,1.76-3.4,3.09-.74,1.32-1.11,2.86-1.11,4.63s.32,3.1.95,4.18c.63,1.08,1.54,1.96,2.72,2.63,1.18.68,2.6,1.24,4.27,1.71,1.08.29,2.02.58,2.82.87.8.29,1.42.63,1.85,1.01.43.38.65.87.65,1.47,0,.54-.14.99-.42,1.34-.28.35-.68.61-1.2.78-.52.17-1.16.26-1.91.26-.84,0-1.76-.09-2.75-.29s-2-.47-3.02-.83c-1.02-.36-2-.78-2.92-1.29l-.55,6.89c.7.33,1.61.64,2.72.94,1.11.3,2.29.54,3.56.72,1.26.19,2.48.28,3.65.28,2.67,0,4.84-.36,6.54-1.07,1.69-.71,2.93-1.74,3.71-3.08.78-1.34,1.18-2.93,1.18-4.77,0-1.6-.27-2.93-.82-3.99-.55-1.06-1.48-1.96-2.78-2.69Z"/>
        <path class="cls-1" d="m203.89,302.76v23.81h8.34v-28.31h-8.34v4.5Z"/>
        <path class="cls-1" d="m219.52,305.35h7.86v21.22h8.14v-21.22h7.86v-7.09h-23.86v7.09Z"/>
        <path class="cls-1" d="m265.31,300.79c-.27.72-.52,1.42-.75,2.08s-.51,1.41-.81,2.21l-1.31,3.65h-.63l-1.31-3.75c-.28-.77-.53-1.47-.75-2.11s-.46-1.32-.7-2.04c-.24-.72-.55-1.58-.9-2.57h-9.27c.73,1.46,1.37,2.75,1.93,3.89.56,1.14,1.14,2.33,1.75,3.57l5.47,11.09v9.75h8.18v-9.8l5.39-11.07c.58-1.19,1.18-2.42,1.79-3.69.61-1.26,1.22-2.52,1.81-3.76h-8.95c-.36.97-.67,1.81-.93,2.53Z"/>
      </g>
    </g>
  </g>
</svg>