<?xml version="1.0" encoding="UTF-8"?>
<svg id="_Слой_2" data-name="Слой 2" xmlns="http://www.w3.org/2000/svg" width="327.91mm" height="50mm" viewBox="0 0 929.51 141.74">
  <defs>
    <style>
      .cls-1 {
        fill: #21145f;
      }
    </style>
  </defs>
  <g id="Layer_1" data-name="Layer 1">
    <g>
      <g>
        <rect class="cls-1" y=".02" width="21.05" height="141.69"/>
        <path class="cls-1" d="m233.94,65.47c-4.12-3.96-8.67-7.29-13.52-10.12-1.22-.71-2.44-1.43-3.71-2.07,8.65-8.91,15.14-19.91,18.66-32.17V.02h-72.86v141.69h95.9l.35-10.18c.9-25.98-8.15-50.05-24.81-66.07m-50.4-44.35h29.56c-4.18,10.12-11.26,18.74-20.21,24.79-3.06-.44-6.16-.78-9.35-.9v-23.9Zm0,99.5v-54.49c14.31.71,26.57,5.66,35.84,14.56,10.21,9.81,16.55,24.01,18.05,39.93h-53.88Z"/>
        <polygon class="cls-1" points="352.46 21.42 352.46 .03 300.66 .03 279.61 .03 279.61 21.42 279.61 141.71 300.66 141.71 300.66 66.04 328.37 66.04 328.37 44.65 300.66 44.65 300.66 21.42 352.46 21.42"/>
        <path class="cls-1" d="m141.68,131.55c.45-25.98-8.14-50.05-24.82-66.06-7.02-6.75-15.19-11.83-24.24-15.27,15.44-12.04,26.2-29.86,28.89-50.22h-21.32c-3.47,18.79-16.44,34.25-33.71,41.22V.05h-21.04v141.69h21.04v-75.58c14.31.7,26.57,5.66,35.83,14.55,8.83,8.49,14.97,20.22,17.18,33.58,2.3,13.86,1.56,27.44,1.56,27.44h20.64s-.04-7.64,0-10.18"/>
        <path class="cls-1" d="m444.31,93.76c0,14.79-12.03,26.83-26.83,26.83s-26.83-12.04-26.83-26.83V.02h-21.12v93.74c0,26.48,21.47,47.95,47.95,47.95s47.95-21.47,47.95-47.95V.02h-21.12v93.74Z"/>
      </g>
      <g>
        <path class="cls-1" d="m550.66,23.87V0h-8.31v28.21h8.31v-4.34Z"/>
        <path class="cls-1" d="m572.74,25.45c.34.97.67,1.89.99,2.76h5.35c.39-1.32.81-2.71,1.25-4.18.44-1.46.89-2.95,1.33-4.47l1.82-6.11h.53l.71,5.7c.16,1.33.33,2.75.52,4.26.19,1.51.38,3.11.58,4.8h7.74c-.19-1.46-.37-2.92-.56-4.36-.19-1.45-.39-3.02-.6-4.74l-1.24-9.56c-.22-1.74-.43-3.37-.63-4.91-.2-1.53-.4-3.08-.61-4.65h-8.09c-.51,1.46-.98,2.8-1.41,4.01-.43,1.21-.87,2.44-1.31,3.68l-2.59,7.3h-.51l-2.76-7.32c-.46-1.23-.92-2.46-1.39-3.71-.47-1.25-.96-2.57-1.49-3.97h-8.21c-.21,1.58-.41,3.14-.59,4.68-.18,1.54-.38,3.16-.59,4.86l-1.2,9.53c-.21,1.72-.4,3.31-.58,4.78-.18,1.47-.36,2.92-.54,4.36h7.52c.21-1.67.41-3.28.59-4.81.18-1.53.36-2.97.51-4.31l.69-5.64h.53l2.17,6.11c.36.96.71,1.94,1.06,2.94.35,1,.7,1.98,1.04,2.95Z"/>
        <path class="cls-1" d="m608.86,23.4c.19-1.53.36-2.97.51-4.31l.69-5.64h.53l2.17,6.11c.36.96.71,1.94,1.05,2.94.35,1,.7,1.98,1.04,2.95.34.97.67,1.89.98,2.76h5.35c.39-1.32.81-2.71,1.25-4.18.44-1.46.89-2.95,1.33-4.47l1.82-6.11h.53l.71,5.7c.16,1.33.33,2.75.52,4.26.19,1.51.38,3.11.58,4.8h7.74c-.19-1.46-.37-2.92-.56-4.36-.19-1.45-.39-3.02-.6-4.74l-1.24-9.56c-.22-1.74-.43-3.37-.63-4.91-.2-1.53-.4-3.08-.61-4.65h-8.09c-.51,1.46-.98,2.8-1.41,4.01-.43,1.21-.87,2.44-1.31,3.68l-2.58,7.3h-.51l-2.76-7.32c-.46-1.23-.92-2.46-1.39-3.71-.47-1.25-.96-2.57-1.49-3.97h-8.21c-.21,1.58-.41,3.14-.59,4.68-.18,1.54-.38,3.16-.59,4.86l-1.21,9.53c-.21,1.72-.4,3.31-.58,4.78-.18,1.47-.36,2.92-.54,4.36h7.52c.21-1.67.41-3.28.59-4.81Z"/>
        <path class="cls-1" d="m659.98,22.99c.07.3.14.56.22.87.36,1.49.71,2.94,1.06,4.35h8.41c-.46-1.5-.94-3.08-1.45-4.73-.51-1.65-1-3.25-1.49-4.81l-2.96-9.7c-.53-1.7-1-3.25-1.43-4.65-.43-1.4-.87-2.84-1.33-4.33h-10.4c-.43,1.43-.87,2.84-1.3,4.23s-.92,2.98-1.46,4.75l-2.98,9.7c-.47,1.49-.97,3.07-1.48,4.76-.51,1.68-1,3.28-1.46,4.78h8.13c.35-1.4.72-2.86,1.11-4.37.07-.3.14-.56.21-.85h8.62Zm-3.98-16.19l2.48,10.15h-5.61l2.56-10.15h.57Z"/>
        <path class="cls-1" d="m684.07,23.87v-10.24h.55l3.81,5.62c1.14,1.71,2.21,3.3,3.19,4.75.98,1.45,1.93,2.85,2.85,4.21h6.95V0h-7.6v14.56h-.57l-3.73-5.56c-.97-1.47-1.94-2.91-2.9-4.34-.96-1.43-2-2.98-3.12-4.66h-7.03v28.21h7.6v-4.34Z"/>
        <path class="cls-1" d="m729,27.39c1.8-.93,3.12-2.26,3.98-3.99.86-1.74,1.28-3.8,1.28-6.2V0h-8.13v16.8c0,1.16-.14,2.14-.4,2.94s-.7,1.4-1.3,1.81c-.6.41-1.39.62-2.38.62s-1.73-.21-2.35-.62c-.62-.41-1.08-1.01-1.37-1.81-.3-.8-.44-1.77-.44-2.92V0h-8.13v17.17c0,2.4.4,4.47,1.2,6.21.8,1.74,2.11,3.08,3.91,4.01s4.2,1.4,7.2,1.4c2.83,0,5.14-.47,6.94-1.4Z"/>
        <path class="cls-1" d="m762.17,21.7h-11.63v-4.71h10.88v-5.91h-10.88v-4.57h11.41V0h-19.38v28.21h19.6v-6.51Z"/>
        <path class="cls-1" d="m789.86,21.15h-11.58V0h-8.15v28.21h19.74v-7.06Z"/>
        <path class="cls-1" d="m832.02,25.11c-.75-1.19-1.52-2.41-2.31-3.68-.79-1.27-1.53-2.44-2.23-3.52l-3.19-5.09,2.92-4.05c1.07-1.48,2.12-2.94,3.17-4.38s2.11-2.9,3.19-4.38h-9.24c-.8,1.29-1.51,2.42-2.12,3.38-.61.96-1.23,1.93-1.85,2.89l-2.59,4.08h-1.07V0h-8.11v28.21h8.11v-11.53h1.18l2.8,5.05c.55,1.03,1.12,2.07,1.71,3.13.58,1.06,1.2,2.18,1.84,3.36h9.71c-.54-.89-1.18-1.92-1.93-3.11Z"/>
        <path class="cls-1" d="m865.37,23.48c-.51-1.65-1-3.25-1.49-4.81l-2.96-9.7c-.53-1.7-1-3.25-1.43-4.65-.43-1.4-.87-2.84-1.33-4.33h-10.4c-.43,1.43-.87,2.84-1.3,4.23-.43,1.4-.92,2.98-1.46,4.75l-2.98,9.7c-.47,1.49-.96,3.07-1.48,4.76-.51,1.68-1,3.28-1.46,4.78h8.13c.35-1.4.72-2.86,1.1-4.37.07-.3.14-.56.21-.85h8.62c.08.3.14.56.22.87.36,1.49.71,2.94,1.06,4.35h8.41c-.46-1.5-.94-3.08-1.45-4.73Zm-12.21-16.68l2.48,10.15h-5.61l2.56-10.15h.57Z"/>
        <path class="cls-1" d="m898.58,23.87V0h-7.6v14.56h-.57l-3.73-5.56c-.97-1.47-1.94-2.91-2.9-4.34-.96-1.43-2-2.98-3.12-4.66h-7.03v28.21h7.6v-14.58h.55l3.81,5.62c1.14,1.71,2.21,3.3,3.19,4.75.98,1.45,1.93,2.85,2.85,4.21h6.95v-4.34Z"/>
        <path class="cls-1" d="m905.72,0v7.06h7.83v21.15h8.11V7.06h7.83V0h-23.78Z"/>
        <path class="cls-1" d="m548.57,84.68h4.12c2.53,0,4.61-.19,6.26-.56,1.64-.38,2.93-.92,3.87-1.61.93-.7,1.59-1.54,1.97-2.52.38-.98.57-2.08.57-3.29,0-1.36-.23-2.49-.69-3.39-.46-.91-1.13-1.63-2-2.17-.87-.54-1.92-.95-3.13-1.23v-.57c.98-.22,1.87-.61,2.66-1.18.79-.56,1.42-1.28,1.87-2.16.46-.89.69-1.92.69-3.12,0-.95-.16-1.81-.49-2.59-.33-.78-.89-1.45-1.69-2.02-.8-.57-1.88-1.01-3.25-1.32-1.37-.31-3.1-.46-5.19-.46h-11.98v28.21h6.4Zm7.99-7.06c-.26.43-.65.76-1.17.97-.52.21-1.16.31-1.93.31h-3.3v-5.78h3.47c1.09,0,1.92.24,2.47.73.55.49.83,1.2.83,2.14,0,.65-.13,1.19-.38,1.62Zm-6.39-12.97v-2.5h3.36c.99,0,1.71.25,2.18.75.47.5.7,1.2.7,2.1,0,.61-.12,1.12-.36,1.55-.24.43-.6.76-1.08.99-.47.23-1.06.35-1.76.35h-3.04v-3.24Z"/>
        <path class="cls-1" d="m579.91,80.3c.08-.3.14-.56.21-.85h8.62c.07.3.14.56.22.87.36,1.49.71,2.94,1.06,4.35h8.41c-.46-1.5-.94-3.08-1.45-4.73-.51-1.65-1-3.25-1.49-4.81l-2.96-9.69c-.53-1.7-1-3.25-1.43-4.65-.43-1.4-.87-2.84-1.33-4.33h-10.4c-.43,1.43-.87,2.84-1.3,4.23-.43,1.4-.92,2.98-1.46,4.75l-2.98,9.69c-.47,1.49-.97,3.08-1.48,4.76-.51,1.68-1,3.28-1.46,4.78h8.13c.36-1.4.72-2.86,1.1-4.37Zm4.86-17.03l2.48,10.15h-5.61l2.56-10.15h.57Z"/>
        <path class="cls-1" d="m624.97,77.61h-11.59v-21.15h-8.15v28.21h19.74v-7.06Z"/>
        <path class="cls-1" d="m627.26,63.53h7.84v21.15h8.11v-21.15h7.83v-7.06h-23.78v7.06Z"/>
        <path class="cls-1" d="m658.31,60.94v23.73h8.31v-28.21h-8.31v4.48Z"/>
        <path class="cls-1" d="m691.73,85.15c.82-.07,1.61-.17,2.38-.31.77-.14,1.5-.32,2.2-.55.7-.22,1.33-.48,1.89-.77l-.39-7.42c-.64.48-1.28.88-1.9,1.21-.63.33-1.25.59-1.87.77-.62.19-1.23.32-1.83.4-.61.09-1.2.13-1.78.13-1.32,0-2.46-.22-3.43-.64-.97-.43-1.78-1.01-2.42-1.75-.64-.74-1.12-1.59-1.43-2.56-.31-.97-.47-1.99-.47-3.06,0-1.74.31-3.2.93-4.37.62-1.17,1.46-2.05,2.53-2.64,1.07-.59,2.28-.88,3.63-.88.74,0,1.53.09,2.37.28.84.18,1.73.48,2.67.88s1.93.93,2.95,1.59l.57-7.52c-.57-.3-1.21-.58-1.94-.82-.73-.24-1.51-.46-2.34-.65-.83-.19-1.69-.34-2.58-.45-.89-.11-1.78-.17-2.68-.17-3.13,0-5.78.64-7.95,1.93-2.17,1.29-3.82,3.04-4.95,5.27-1.13,2.23-1.7,4.76-1.7,7.58,0,2.23.35,4.24,1.04,6.03.7,1.79,1.7,3.33,3.02,4.61,1.32,1.28,2.9,2.26,4.77,2.95,1.86.68,3.95,1.03,6.27,1.03.82,0,1.63-.03,2.45-.1Z"/>
        <path class="cls-1" d="m725.5,63.21h11.17v-6.75h-19.13v28.21h7.95v-10.45h10.62v-6.45h-10.62v-4.57Z"/>
        <path class="cls-1" d="m763.93,78.17h-11.63v-4.71h10.88v-5.91h-10.88v-4.57h11.41v-6.51h-19.38v28.21h19.6v-6.51Z"/>
        <path class="cls-1" d="m796.47,76.06c.53-1.72.8-3.58.8-5.57,0-2.24-.3-4.23-.91-5.97-.6-1.74-1.48-3.21-2.64-4.4-1.15-1.19-2.56-2.1-4.22-2.72-1.66-.62-3.56-.93-5.69-.93h-11.92v28.21h10.28c2.79,0,5.15-.36,7.09-1.08,1.93-.72,3.49-1.73,4.66-3.02,1.17-1.29,2.02-2.8,2.56-4.52Zm-8.32-1.64c-.42,1.18-1.12,2.11-2.09,2.79-.97.68-2.28,1.02-3.93,1.02h-2.09v-15.31h2.35c1.13,0,2.1.18,2.9.53.8.35,1.47.87,1.98,1.53.52.67.9,1.45,1.15,2.36.24.91.36,1.93.36,3.05,0,1.51-.21,2.85-.63,4.02Z"/>
        <path class="cls-1" d="m816.19,78.17h-3.57v-4.71h10.88v-5.91h-10.88v-4.57h11.41v-6.51h-19.38v28.21h19.6v-6.51h-8.05Z"/>
        <path class="cls-1" d="m853.86,79.22c-.61-1-1.19-1.95-1.73-2.83l-2.3-3.76c.32-.12.71-.19,1-.33,1.41-.71,2.44-1.7,3.11-2.97.67-1.27,1-2.74,1-4.43,0-2.17-.44-3.86-1.32-5.09-.88-1.23-2.16-2.09-3.83-2.59-1.67-.5-3.7-.75-6.08-.75h-11.53v28.21h7.99v-10.17h2.13l2.39,4.31c.53.92,1.06,1.87,1.61,2.83.55.96,1.12,1.97,1.71,3.03h9.18c-.45-.73-.96-1.57-1.54-2.52-.58-.96-1.17-1.94-1.79-2.94Zm-13.69-11.99v-4.55h3.3c.41,0,.8.05,1.17.16.37.11.7.28.99.53.29.25.51.58.67.98.16.4.24.91.24,1.51,0,.9-.14,1.59-.42,2.09-.28.49-.69.84-1.21,1.03-.52.19-1.14.29-1.85.29h-2.86v-2.04Z"/>
        <path class="cls-1" d="m887.09,75.14l-2.96-9.69c-.53-1.7-1-3.25-1.43-4.65-.43-1.4-.87-2.84-1.33-4.33h-10.4c-.43,1.43-.87,2.84-1.3,4.23-.43,1.4-.92,2.98-1.46,4.75l-2.98,9.69c-.47,1.49-.97,3.08-1.48,4.76-.51,1.68-1,3.28-1.46,4.78h8.13c.36-1.4.72-2.86,1.11-4.37.07-.3.14-.56.21-.85h8.62c.07.3.14.56.22.87.36,1.49.72,2.94,1.06,4.35h8.41c-.46-1.5-.94-3.08-1.45-4.73-.51-1.65-1-3.25-1.49-4.81Zm-10.72-11.87l2.48,10.15h-5.61l2.56-10.15h.57Z"/>
        <path class="cls-1" d="m911.31,77.61h-6.32v-21.15h-8.15v28.21h19.74v-7.06h-5.27Z"/>
        <path class="cls-1" d="m558.38,117.41v12.32c0,1.16-.14,2.14-.4,2.94-.27.8-.7,1.4-1.3,1.81-.6.41-1.39.62-2.38.62s-1.73-.21-2.35-.62c-.62-.41-1.07-1.01-1.37-1.81-.29-.8-.44-1.77-.44-2.92v-16.82h-8.13v17.17c0,2.4.4,4.47,1.2,6.21.8,1.74,2.1,3.08,3.91,4.01,1.8.93,4.2,1.39,7.2,1.39,2.83,0,5.14-.46,6.94-1.39s3.12-2.26,3.98-4c.86-1.73,1.28-3.8,1.28-6.2v-17.19h-8.13v4.48Z"/>
        <path class="cls-1" d="m592.19,117.41v10.08h-.57l-3.73-5.56c-.97-1.47-1.94-2.91-2.9-4.34-.96-1.43-2-2.98-3.12-4.66h-7.03v28.21h7.6v-14.58h.55l3.81,5.62c1.14,1.71,2.21,3.3,3.19,4.75.98,1.45,1.93,2.86,2.85,4.21h6.95v-28.21h-7.6v4.48Z"/>
        <path class="cls-1" d="m608.47,117.41v23.73h8.31v-28.21h-8.31v4.48Z"/>
        <path class="cls-1" d="m640.96,118.2c-.41,1.82-.8,3.56-1.19,5.23l-2.13,9.48h-.55l-1.95-9.44c-.33-1.65-.69-3.4-1.07-5.27-.39-1.87-.76-3.62-1.12-5.27h-9.04c.31,1.11.65,2.27,1,3.5.35,1.23.69,2.44,1.03,3.63.33,1.19.65,2.3.94,3.31l2.51,8.83c.39,1.37.82,2.85,1.26,4.44.45,1.59.88,3.09,1.28,4.5h10.86c.42-1.41.85-2.9,1.3-4.48.45-1.58.88-3.06,1.28-4.46l2.57-8.87c.29-1.04.6-2.14.95-3.31.34-1.17.69-2.35,1.04-3.56.35-1.21.68-2.38,1-3.53h-8.76c-.38,1.7-.78,3.46-1.18,5.27Z"/>
        <path class="cls-1" d="m669.42,134.63h-3.57v-4.71h10.88v-5.91h-10.88v-4.57h11.41v-6.51h-19.38v28.21h19.6v-6.51h-8.05Z"/>
        <path class="cls-1" d="m707.09,135.68c-.61-1-1.19-1.95-1.73-2.83l-2.3-3.76c.32-.12.71-.19,1-.33,1.41-.71,2.44-1.7,3.11-2.97.67-1.27,1-2.74,1-4.43,0-2.17-.44-3.86-1.32-5.09-.88-1.23-2.16-2.09-3.83-2.59-1.67-.5-3.7-.75-6.08-.75h-11.53v28.21h7.99v-10.17h2.13l2.39,4.31c.53.92,1.06,1.87,1.61,2.83.55.96,1.12,1.97,1.71,3.03h9.18c-.45-.73-.96-1.57-1.54-2.52-.58-.96-1.17-1.94-1.79-2.94Zm-13.69-11.99v-4.55h3.3c.41,0,.8.05,1.16.16.37.1.7.28.99.53.29.25.51.58.67.98.16.4.24.91.24,1.51,0,.9-.14,1.59-.42,2.09-.28.49-.69.84-1.21,1.03-.52.19-1.14.29-1.85.29h-2.86v-2.04Z"/>
        <path class="cls-1" d="m734.28,126.18c-1.3-.73-3.08-1.42-5.33-2.05-.97-.29-1.77-.57-2.41-.83-.63-.26-1.1-.57-1.4-.91-.3-.34-.45-.77-.45-1.29s.14-.94.43-1.27c.29-.33.69-.57,1.19-.73.51-.16,1.09-.24,1.77-.24s1.46.09,2.32.26c.86.17,1.75.43,2.67.78.91.35,1.81.78,2.68,1.3l.55-6.95c-.57-.26-1.23-.51-2-.74-.77-.23-1.59-.43-2.47-.61-.88-.18-1.77-.32-2.7-.42-.92-.11-1.83-.16-2.72-.16-2.36,0-4.29.37-5.81,1.1-1.52.73-2.65,1.76-3.39,3.07-.74,1.32-1.11,2.86-1.11,4.61s.32,3.09.95,4.16c.63,1.08,1.54,1.95,2.71,2.62,1.18.67,2.6,1.24,4.25,1.7,1.08.29,2.02.58,2.81.87.8.29,1.41.63,1.85,1.01.43.38.65.87.65,1.46,0,.54-.14.98-.41,1.33-.28.35-.68.61-1.2.78-.52.17-1.15.26-1.9.26-.84,0-1.76-.1-2.74-.29-.99-.19-1.99-.46-3.01-.82-1.02-.35-1.99-.78-2.91-1.28l-.55,6.87c.7.33,1.6.64,2.71.94,1.1.29,2.29.53,3.54.72,1.26.19,2.47.28,3.64.28,2.66,0,4.83-.36,6.51-1.07,1.68-.71,2.92-1.74,3.7-3.07.78-1.33,1.17-2.92,1.17-4.75,0-1.59-.27-2.92-.82-3.98-.55-1.05-1.47-1.95-2.77-2.68Z"/>
        <path class="cls-1" d="m745.2,117.41v23.73h8.31v-28.21h-8.31v4.48Z"/>
        <path class="cls-1" d="m760.77,119.99h7.84v21.15h8.11v-21.15h7.84v-7.06h-23.78v7.06Z"/>
        <path class="cls-1" d="m806.4,115.45c-.26.72-.51,1.41-.75,2.08-.24.67-.51,1.4-.81,2.21l-1.3,3.64h-.63l-1.3-3.74c-.28-.77-.52-1.47-.75-2.11-.22-.64-.46-1.32-.7-2.04-.25-.72-.54-1.57-.9-2.56h-9.24c.72,1.45,1.36,2.74,1.92,3.88.56,1.14,1.14,2.32,1.75,3.56l5.45,11.05v9.72h8.15v-9.76l5.37-11.03c.58-1.19,1.17-2.41,1.78-3.67.61-1.26,1.22-2.51,1.81-3.75h-8.92c-.35.96-.66,1.8-.93,2.52Z"/>
      </g>
    </g>
  </g>
</svg>