<?xml version="1.0" encoding="UTF-8"?>
<svg id="_Слой_2" data-name="Слой 2" xmlns="http://www.w3.org/2000/svg" width="170.03mm" height="94.11mm" viewBox="0 0 481.99 266.76">
  <defs>
    <style>
      .cls-1 {
        fill: #21145f;
      }
    </style>
  </defs>
  <g id="Layer_1" data-name="Layer 1">
    <g>
      <path class="cls-1" d="m235.03,0c-53.25,0-96.56,43.42-96.56,96.78s43.32,96.79,96.56,96.79,96.56-43.42,96.56-96.79S288.27,0,235.03,0Zm-13.33,165.54c-32.19-6.26-56.58-34.69-56.58-68.76s24.39-62.5,56.58-68.76v137.52Zm26.65,0V28.02c32.19,6.26,56.58,34.7,56.58,68.76s-24.39,62.5-56.58,68.76Z"/>
      <path class="cls-1" d="m468.64,42.41c3.56-10.97,5.4-23.15,5.4-36.25h-26.66c0,29.27-10.79,63.72-59.87,68.97-.77-16.97-5.36-45.32-23.3-68.97h-35l8,8.41c27.58,27.64,23.58,72.85,23.55,73.25l-1.51,14.72h14.77c34.2,0,60.3-10.06,77.69-29.84,9.59,34.3-1.9,62.28-20.35,76.56-22.42,17.36-52.2,14.72-75.87-6.7l-15.16,22.21c16.38,13.9,35.12,21.68,54.4,22.56,1.19.05,2.38.08,3.57.08,17.71,0,35.11-5.97,49.36-17,30.31-23.47,48.07-71.85,20.98-128Z"/>
      <g>
        <path class="cls-1" d="m18.3,237.47c-1.17,1.79-2.33,3.57-3.48,5.36l-4.49,6.88h-.7v-17.98H0v34.33h8.24c1.12-1.7,2.27-3.45,3.44-5.24,1.17-1.79,2.45-3.73,3.84-5.84l4.56-6.94h.65v18.01h9.63v-34.33h-8.34c-1.31,2.04-2.55,3.95-3.72,5.74Z"/>
        <path class="cls-1" d="m81.01,254.98l-1.51-11.63c-.27-2.12-.53-4.11-.77-5.97s-.49-3.75-.74-5.65h-9.85c-.62,1.78-1.2,3.41-1.72,4.89-.52,1.48-1.05,2.97-1.6,4.48l-3.15,8.89h-.62l-3.36-8.91c-.56-1.49-1.12-3-1.69-4.51-.57-1.51-1.17-3.13-1.81-4.82h-9.99c-.26,1.92-.5,3.82-.72,5.69s-.46,3.84-.72,5.91l-1.47,11.61c-.26,2.09-.49,4.02-.71,5.82-.22,1.79-.44,3.56-.66,5.31h9.15c.26-2.04.5-3.99.72-5.85.22-1.86.43-3.61.63-5.25l.84-6.86h.65l2.64,7.44c.43,1.17.86,2.37,1.29,3.58.42,1.21.84,2.41,1.26,3.58.42,1.18.82,2.3,1.2,3.36h6.51c.48-1.6.99-3.3,1.53-5.08.54-1.78,1.08-3.6,1.62-5.44l2.21-7.44h.65l.86,6.94c.19,1.62.4,3.35.64,5.18.23,1.84.47,3.79.71,5.84h9.42c-.23-1.78-.45-3.55-.69-5.31-.23-1.76-.48-3.68-.73-5.77Z"/>
        <path class="cls-1" d="m106.01,258.13h-4.35v-5.73h13.23v-7.2h-13.23v-5.56h13.88v-7.92h-23.59v34.33h23.85v-7.92h-9.8Z"/>
        <path class="cls-1" d="m146.08,237.18v7.53h-10.67v-12.98h-9.92v34.33h9.92v-13.14h10.67v13.14h9.92v-34.33h-9.92v5.45Z"/>
        <path class="cls-1" d="m184.6,237.47c-1.17,1.79-2.33,3.57-3.48,5.36l-4.49,6.88h-.7v-17.98h-9.63v34.33h8.24c1.12-1.7,2.27-3.45,3.43-5.24,1.17-1.79,2.45-3.73,3.84-5.84l4.56-6.94h.65v18.01h9.63v-34.33h-8.34c-1.31,2.04-2.55,3.95-3.72,5.74Z"/>
        <path class="cls-1" d="m239.19,237.47c-1.17,1.79-2.33,3.57-3.48,5.36l-4.49,6.88h-.7v-17.98h-9.63v34.33h8.24c1.12-1.7,2.27-3.45,3.44-5.24,1.17-1.79,2.45-3.73,3.84-5.84l4.56-6.94h.65v18.01h9.63v-34.33h-8.34c-1.31,2.04-2.55,3.95-3.72,5.74Z"/>
        <path class="cls-1" d="m268.35,257.38c-.77-.43-1.69-.64-2.76-.64-1.62,0-2.89.47-3.82,1.41-.93.94-1.39,2.12-1.39,3.55,0,.95.21,1.8.63,2.57.41.76,1.01,1.37,1.78,1.82.77.45,1.69.68,2.76.68,1.65,0,2.93-.49,3.85-1.47.92-.98,1.38-2.18,1.38-3.59,0-.96-.21-1.82-.64-2.56-.42-.75-1.02-1.33-1.79-1.76Z"/>
        <path class="cls-1" d="m319.49,257.8c-.96-1.54-1.86-2.97-2.71-4.29l-3.88-6.19,3.55-4.93c1.3-1.8,2.58-3.58,3.86-5.33,1.27-1.76,2.57-3.54,3.88-5.33h-11.24c-.98,1.57-1.84,2.94-2.58,4.12-.74,1.17-1.49,2.34-2.25,3.52l-3.15,4.96h-1.3v-12.59h-9.87v34.33h9.87v-14.03h1.44l3.41,6.14c.67,1.25,1.36,2.52,2.08,3.81.71,1.29,1.46,2.65,2.25,4.09h11.82c-.66-1.08-1.44-2.34-2.35-3.78-.91-1.44-1.85-2.93-2.81-4.48Z"/>
        <path class="cls-1" d="m361.06,254.45l-3.6-11.79c-.64-2.07-1.22-3.96-1.74-5.66-.52-1.7-1.06-3.46-1.62-5.27h-12.66c-.53,1.73-1.06,3.45-1.59,5.15-.53,1.7-1.12,3.63-1.78,5.78l-3.62,11.79c-.58,1.82-1.18,3.74-1.8,5.79-.62,2.04-1.22,3.99-1.78,5.81h9.9c.43-1.7.88-3.47,1.34-5.32.09-.36.17-.68.26-1.04h10.49c.09.37.17.69.27,1.06.44,1.81.87,3.58,1.29,5.3h10.23c-.56-1.83-1.15-3.75-1.76-5.75-.62-2.01-1.22-3.96-1.81-5.85Zm-13.04-14.45l3.02,12.35h-6.83l3.12-12.35h.7Z"/>
        <path class="cls-1" d="m393.51,237.18v7.53h-10.66v-12.98h-9.92v34.33h9.92v-13.14h10.66v13.14h9.92v-34.33h-9.92v5.45Z"/>
        <path class="cls-1" d="m412.05,240.32h9.54v25.74h9.87v-25.74h9.54v-8.59h-28.94v8.59Z"/>
        <path class="cls-1" d="m473.9,254.45l-3.6-11.79c-.64-2.07-1.22-3.96-1.74-5.66-.52-1.7-1.06-3.46-1.62-5.27h-12.66c-.53,1.73-1.06,3.45-1.59,5.15-.53,1.7-1.12,3.63-1.78,5.78l-3.63,11.79c-.58,1.82-1.18,3.74-1.8,5.79-.63,2.04-1.22,3.99-1.78,5.81h9.9c.43-1.7.88-3.47,1.34-5.32.09-.36.17-.68.26-1.04h10.49c.09.37.17.69.26,1.06.44,1.81.87,3.58,1.29,5.3h10.23c-.56-1.83-1.15-3.75-1.76-5.75-.62-2.01-1.22-3.96-1.82-5.85Zm-13.04-14.45l3.02,12.35h-6.83l3.11-12.35h.7Z"/>
      </g>
      <path class="cls-1" d="m26.65,64.05v-30.27h65.62V7.05H0v179.47h121.47l.44-12.9c1.14-32.9-10.32-63.4-31.43-83.68-16.82-16.16-38.68-24.98-63.83-25.9Zm0,95.76v-69.01c18.13.9,33.65,7.17,45.39,18.44,12.94,12.43,20.97,30.4,22.86,50.57H26.65Z"/>
    </g>
  </g>
</svg>